<svg width="21" height="20" viewBox="0 0 21 20" fill="none" xmlns="http://www.w3.org/2000/svg">
<path d="M11.4436 0.003127L11.4465 0.00410356C11.4479 0.00423457 11.4498 0.00393989 11.4514 0.00410356C11.4547 0.00443556 11.4587 0.00460018 11.4631 0.00508013C11.4718 0.00602828 11.4826 0.00735299 11.4953 0.00898638C11.5214 0.0123163 11.5565 0.0175557 11.5989 0.0246114C11.6835 0.0387281 11.7998 0.0616575 11.9446 0.0978536C12.2347 0.170378 12.6387 0.296447 13.1301 0.514846C14.1146 0.952451 15.4409 1.75529 16.9055 3.21992C18.3701 4.68456 19.173 6.01078 19.6106 6.99531C19.829 7.48671 19.955 7.89076 20.0276 8.18086C20.0638 8.32565 20.0867 8.44192 20.1008 8.52656C20.1079 8.5689 20.1131 8.60405 20.1164 8.63008C20.1181 8.64287 20.1194 8.65363 20.1203 8.66231C20.1208 8.6667 20.121 8.67071 20.1213 8.67403C20.1215 8.67566 20.1212 8.67754 20.1213 8.67891L20.1223 8.68086L20.1252 8.75899C20.1212 9.13897 19.8301 9.4619 19.4436 9.49727C19.0335 9.53455 18.6702 9.23418 18.6291 8.82539L18.6282 8.81953C18.6272 8.81183 18.6251 8.79641 18.6213 8.77363C18.6136 8.72706 18.5987 8.64916 18.5725 8.54414C18.52 8.33423 18.421 8.013 18.2395 7.60469C17.877 6.78926 17.1801 5.61559 15.845 4.28047C14.5098 2.94535 13.3362 2.24839 12.5207 1.88594C12.1124 1.70447 11.7912 1.60544 11.5813 1.55293C11.4763 1.52668 11.3984 1.51187 11.3518 1.5041L11.3059 1.49727C11.3046 1.49715 11.3043 1.49642 11.303 1.49629C11.3018 1.49617 11.3002 1.49631 11.3 1.49629C10.8912 1.45517 10.5909 1.09191 10.6282 0.681838C10.6659 0.269549 11.0312 -0.0343608 11.4436 0.003127Z" fill="#1C274C"/>
<path d="M10.8615 4.07978C10.9754 3.68159 11.39 3.45136 11.7883 3.56513H11.7912C11.7921 3.56539 11.7932 3.56582 11.7941 3.56611C11.7964 3.56678 11.7992 3.56822 11.802 3.56904C11.8076 3.57075 11.8149 3.57249 11.8225 3.5749C11.8374 3.57969 11.8559 3.58655 11.8781 3.59443C11.923 3.61037 11.9831 3.63256 12.0559 3.66377C12.2015 3.7262 12.4004 3.82286 12.6447 3.96748C13.1342 4.25713 13.8023 4.73831 14.5871 5.52314C15.372 6.30807 15.8541 6.97607 16.1437 7.46552C16.2885 7.71003 16.384 7.90969 16.4465 8.05537C16.4777 8.12813 16.5009 8.18723 16.5168 8.23213C16.5248 8.25458 16.5305 8.27369 16.5354 8.28877C16.5378 8.29628 16.5405 8.30267 16.5422 8.3083C16.543 8.3111 16.5435 8.31378 16.5441 8.31611C16.5444 8.31714 16.5448 8.3181 16.5451 8.31904L16.5461 8.32099L16.5637 8.39717C16.6306 8.77122 16.4046 9.14286 16.0314 9.2497C15.6332 9.36352 15.2175 9.13235 15.1037 8.73408V8.73603L15.1047 8.73701L15.1057 8.73896C15.1061 8.74034 15.1064 8.74196 15.1066 8.74287C15.1071 8.74452 15.1066 8.7458 15.1066 8.7458C15.1066 8.74565 15.1064 8.74155 15.1037 8.73408C15.0984 8.71908 15.087 8.68926 15.0686 8.64619C15.0316 8.5599 14.9642 8.4186 14.8527 8.23017C14.6297 7.85342 14.2265 7.28365 13.5266 6.58369C12.8269 5.88403 12.2578 5.48147 11.8811 5.25849C11.6927 5.14702 11.5514 5.0797 11.465 5.04267C11.422 5.02423 11.3922 5.01287 11.3771 5.00752C11.3762 5.00717 11.3751 5.00684 11.3742 5.00654C11.3743 5.00655 11.3758 5.00686 11.3762 5.00556C10.9781 4.89161 10.7478 4.47793 10.8615 4.07978Z" fill="#1C274C"/>
<path d="M2.38304 3.15742C4.063 1.47746 6.89764 1.60468 8.06761 3.70039L8.71702 4.86348C9.48025 6.23106 9.1552 7.95605 8.03929 9.08809C8.04147 9.08526 8.04204 9.08497 8.03929 9.08809C8.03471 9.09403 8.02293 9.11107 8.00804 9.13887C7.97894 9.19319 7.93965 9.28887 7.93284 9.42793C7.92033 9.68436 8.01171 10.2773 8.92991 11.1955C9.84793 12.1135 10.4409 12.2041 10.6975 12.1916C10.8365 12.1848 10.9321 12.1465 10.9866 12.1174C11.0144 12.1025 11.0323 12.0897 11.0383 12.0852C12.1704 10.97 13.8947 10.6454 15.2619 11.4084L16.4241 12.0578C18.5203 13.2276 18.648 16.0623 16.968 17.7424C16.0694 18.6409 14.875 19.4401 13.4709 19.4934C11.39 19.5723 7.93472 19.0343 4.51292 15.6125C1.09114 12.1907 0.553168 8.73542 0.632059 6.65449C0.685419 5.25045 1.48445 4.056 2.38304 3.15742ZM6.75804 4.43184C6.159 3.35849 4.54941 3.11215 3.44358 4.21797C2.66823 4.99331 2.16379 5.84933 2.13108 6.71211C2.06538 8.44751 2.49435 11.4728 5.57347 14.552C8.65263 17.6311 11.678 18.0601 13.4133 17.9943C14.2761 17.9617 15.1321 17.4572 15.9074 16.6818C17.0133 15.5759 16.7669 13.9664 15.6936 13.3674L14.5305 12.7189C13.8071 12.3152 12.7907 12.4529 12.0774 13.1662L11.5471 12.6359C12.077 13.1666 12.0769 13.1667 12.0764 13.1672L12.0588 13.1848C12.0512 13.192 12.0418 13.2001 12.0315 13.2092C12.0108 13.2275 11.984 13.2493 11.9524 13.2736C11.8892 13.3223 11.8033 13.3815 11.6946 13.4397C11.4757 13.5568 11.1649 13.6714 10.7707 13.6906C9.96045 13.7302 8.97935 13.366 7.86936 12.2561C6.7593 11.1459 6.39521 10.165 6.43479 9.35469C6.45411 8.96044 6.56849 8.64878 6.68577 8.42988C6.74401 8.32125 6.80316 8.23518 6.85179 8.17207C6.87605 8.14059 6.89799 8.11456 6.91624 8.09395C6.92534 8.08368 6.93347 8.07423 6.94065 8.0666L6.95823 8.04903C6.95867 8.04859 6.95911 8.04816 7.36253 8.45137L6.95921 8.04805C7.67254 7.33473 7.8102 6.31834 7.40647 5.59492L6.75804 4.43184Z" fill="#1C274C"/>
</svg>
