<svg width="22" height="18" viewBox="0 0 22 18" fill="none" xmlns="http://www.w3.org/2000/svg">
<path d="M20.25 9C20.25 7.09324 20.2485 5.73859 20.1104 4.71094C19.9751 3.70486 19.7211 3.12536 19.2979 2.70215C18.8747 2.27896 18.2952 2.02491 17.2891 1.88965C16.2614 1.7515 14.9067 1.75 13 1.75H9C7.09324 1.75 5.73859 1.7515 4.71094 1.88965C3.70485 2.02491 3.12536 2.27894 2.70215 2.70215C2.27894 3.12536 2.02491 3.70485 1.88965 4.71094C1.7515 5.73859 1.75 7.09324 1.75 9C1.75 10.9067 1.7515 12.2614 1.88965 13.2891C2.02491 14.2952 2.27896 14.8747 2.70215 15.2979C3.12536 15.7211 3.70486 15.9751 4.71094 16.1104C5.73859 16.2485 7.09324 16.25 9 16.25H13C14.9067 16.25 16.2614 16.2485 17.2891 16.1104C18.2952 15.9751 18.8747 15.7211 19.2979 15.2979C19.7211 14.8747 19.9751 14.2952 20.1104 13.2891C20.2485 12.2614 20.25 10.9067 20.25 9ZM21.75 9C21.75 10.8644 21.7514 12.3384 21.5967 13.4893C21.439 14.6616 21.1067 15.6101 20.3584 16.3584C19.6101 17.1067 18.6616 17.439 17.4893 17.5967C16.3384 17.7514 14.8644 17.75 13 17.75H9C7.13558 17.75 5.66159 17.7514 4.51074 17.5967C3.33844 17.439 2.38991 17.1067 1.6416 16.3584C0.893277 15.6101 0.560961 14.6616 0.403321 13.4893C0.248594 12.3384 0.25 10.8644 0.25 9C0.25 7.13558 0.248594 5.66159 0.403321 4.51074C0.560962 3.33844 0.893297 2.38991 1.6416 1.6416C2.38991 0.893297 3.33844 0.560962 4.51074 0.403321C5.66159 0.248594 7.13558 0.25 9 0.25H13C14.8644 0.25 16.3384 0.248594 17.4893 0.403321C18.6616 0.560961 19.6101 0.893277 20.3584 1.6416C21.1067 2.38991 21.439 3.33844 21.5967 4.51074C21.7514 5.66159 21.75 7.13558 21.75 9Z" fill="#1C274C"/>
<path d="M16.5195 4.42383C16.8377 4.15871 17.311 4.2015 17.5762 4.51953C17.8413 4.83768 17.7985 5.31097 17.4805 5.57617L15.3213 7.375C14.4177 8.12797 13.6879 8.73781 13.0449 9.15137C12.3844 9.57617 11.7411 9.84473 11 9.84473C10.2589 9.84473 9.61557 9.57617 8.95508 9.15137C8.31213 8.73781 7.58227 8.12796 6.67871 7.375L4.51953 5.57617C4.2015 5.31097 4.15871 4.83768 4.42383 4.51953C4.68903 4.2015 5.16233 4.15871 5.48047 4.42383L7.63867 6.22266C8.57163 7.00012 9.21974 7.5389 9.7666 7.89063C10.2959 8.23099 10.655 8.34473 11 8.34473C11.345 8.34473 11.7041 8.23099 12.2334 7.89063C12.7803 7.53891 13.4284 7.00011 14.3613 6.22266L16.5195 4.42383Z" fill="#1C274C"/>
</svg>
