<svg width="29" height="28" viewBox="0 0 29 28" fill="none" xmlns="http://www.w3.org/2000/svg">
<path d="M28.4994 14.0512C28.4994 6.31947 22.2315 0.0515137 14.4997 0.0515137C6.76795 0.0515137 0.5 6.31947 0.5 14.0512C0.5 20.6165 5.02023 26.1257 11.1179 27.6388V18.3295H8.23121V14.0512H11.1179V12.2078C11.1179 7.44281 13.2745 5.23421 17.9526 5.23421C18.8396 5.23421 20.3701 5.40837 20.9962 5.58196V9.45989C20.6658 9.42517 20.0918 9.40781 19.3789 9.40781C17.0835 9.40781 16.1965 10.2775 16.1965 12.5381V14.0512H20.7694L19.9837 18.3295H16.1965V27.9485C23.1286 27.1113 28.5 21.209 28.5 14.0512H28.4994Z" fill="#1C274C"/>
</svg>
