<svg width="48" height="48" viewBox="0 0 48 48" fill="none" xmlns="http://www.w3.org/2000/svg">
<path d="M40 16H8C6.34315 16 5 17.3431 5 19V39C5 40.6569 6.34315 42 8 42H40C41.6569 42 43 40.6569 43 39V19C43 17.3431 41.6569 16 40 16Z" stroke="#1B2C92" stroke-width="1.8" stroke-linejoin="round"/>
<path d="M19 8H29V4H19V8ZM30 9V16H34V9H30ZM18 16V9H14V16H18ZM29 8C29.2652 8 29.5196 8.10536 29.7071 8.29289C29.8946 8.48043 30 8.73478 30 9H34C34 7.67392 33.4732 6.40215 32.5355 5.46447C31.5979 4.52678 30.3261 4 29 4V8ZM19 4C17.6739 4 16.4021 4.52678 15.4645 5.46447C14.5268 6.40215 14 7.67392 14 9H18C18 8.73478 18.1054 8.48043 18.2929 8.29289C18.4804 8.10536 18.7348 8 19 8V4Z" fill="#1B2C92"/>
<path d="M18 29H30M24 23V35" stroke="#1B2C92" stroke-width="1.8" stroke-linecap="round" stroke-linejoin="round"/>
</svg>
