<svg width="26" height="22" viewBox="0 0 26 22" fill="none" xmlns="http://www.w3.org/2000/svg">
<path d="M9.568 21.496L9.13867 20.6653C8.95556 20.3391 8.82844 20.0013 8.75733 19.652C8.68533 19.3036 8.64933 18.944 8.64933 18.5733C8.64933 18.1138 8.71289 17.664 8.84 17.224C8.96711 16.784 9.16933 16.3756 9.44667 15.9987C9.64222 15.7036 9.79689 15.3827 9.91067 15.036C10.0253 14.6893 10.0827 14.3351 10.0827 13.9733C10.0827 13.5831 10.0116 13.2071 9.86933 12.8453C9.72711 12.4827 9.57244 12.12 9.40533 11.7573C9.21778 11.3698 9.056 10.9791 8.92 10.5853C8.784 10.1924 8.716 9.78845 8.716 9.37334V5.33334C8.716 4.62312 8.496 4.00089 8.056 3.46667C7.616 2.93245 7.05822 2.66578 6.38267 2.66667C5.81378 2.66667 5.30889 2.82623 4.868 3.14534C4.42622 3.46534 4.16711 3.88134 4.09067 4.39334C4.82844 4.56223 5.44178 4.94756 5.93067 5.54934C6.41956 6.15112 6.66444 6.84801 6.66533 7.64001C6.66533 8.56356 6.34089 9.35023 5.692 10C5.04311 10.6498 4.25644 10.9742 3.332 10.9733C2.40756 10.9725 1.62133 10.648 0.973333 10C0.325333 9.35201 0.000888889 8.56534 0 7.64001C0 6.81956 0.264 6.10356 0.792 5.49201C1.32 4.88045 1.97556 4.50934 2.75867 4.37867C2.85289 3.50312 3.24889 2.77645 3.94667 2.19867C4.64444 1.62089 5.45689 1.33201 6.384 1.33201C6.47111 1.33201 6.55422 1.33778 6.63333 1.34934C6.71244 1.36089 6.79511 1.37156 6.88133 1.38134C7.74 0.870228 8.65689 0.512006 9.632 0.306672C10.6071 0.101339 11.6009 -0.000883142 12.6133 5.74713e-06C13.6391 5.74713e-06 14.6396 0.102228 15.6147 0.306672C16.5898 0.511117 17.5067 0.869339 18.3653 1.38134C18.4347 1.37067 18.5133 1.36001 18.6013 1.34934C18.6893 1.33867 18.7676 1.33289 18.836 1.33201C19.7676 1.33201 20.5827 1.62089 21.2813 2.19867C21.98 2.77645 22.376 3.50312 22.4693 4.37867C23.2524 4.52534 23.904 4.90045 24.424 5.50401C24.9431 6.10756 25.2027 6.81956 25.2027 7.64001C25.2027 8.56356 24.8782 9.35023 24.2293 10C23.5804 10.6498 22.7938 10.9742 21.8693 10.9733C20.9449 10.9725 20.1587 10.648 19.5107 10C18.8627 9.35201 18.5382 8.56534 18.5373 7.64001C18.5373 6.84712 18.7818 6.14578 19.2707 5.53601C19.7596 4.92623 20.3818 4.54578 21.1373 4.39467C21.0422 3.88178 20.7787 3.46534 20.3467 3.14534C19.9138 2.82534 19.4102 2.66534 18.836 2.66534C18.1604 2.66534 17.604 2.93245 17.1667 3.46667C16.7293 4.00089 16.5107 4.62312 16.5107 5.33334V9.37334C16.5107 9.78845 16.4413 10.1929 16.3027 10.5867C16.1649 10.9796 16.0044 11.3698 15.8213 11.7573C15.6489 12.12 15.4929 12.4827 15.3533 12.8453C15.2138 13.208 15.144 13.584 15.144 13.9733C15.144 14.336 15.1973 14.6947 15.304 15.0493C15.4107 15.404 15.5778 15.7293 15.8053 16.0253C16.0604 16.4182 16.2529 16.8262 16.3827 17.2493C16.5124 17.6725 16.5773 18.1138 16.5773 18.5733C16.5773 18.944 16.536 19.304 16.4533 19.6533C16.3707 20.0018 16.2489 20.3396 16.088 20.6667L15.66 21.5227L14.4387 20.912L14.868 20.0813C14.996 19.852 15.0907 19.612 15.152 19.3613C15.2133 19.1107 15.244 18.848 15.244 18.5733C15.244 18.2382 15.1907 17.9182 15.084 17.6133C14.9773 17.3085 14.8409 17.0116 14.6747 16.7227C14.3813 16.3289 14.1636 15.8996 14.0213 15.4347C13.8809 14.9698 13.8107 14.4938 13.8107 14.0067C13.8107 13.5471 13.8831 13.1107 14.028 12.6973C14.1729 12.284 14.3418 11.8813 14.5347 11.4893C14.7018 11.1436 14.8507 10.7951 14.9813 10.444C15.112 10.0929 15.1773 9.73601 15.1773 9.37334V5.33334C15.1773 4.66223 15.3204 4.03645 15.6067 3.45601C15.8929 2.87556 16.2858 2.41956 16.7853 2.08801C16.1222 1.80801 15.4422 1.61245 14.7453 1.50134C14.0484 1.38845 13.3378 1.33201 12.6133 1.33201C11.8889 1.33201 11.1738 1.38801 10.468 1.50001C9.76222 1.61201 9.08667 1.80801 8.44133 2.08801C8.94089 2.41956 9.33378 2.87556 9.62 3.45601C9.90622 4.03645 10.0493 4.66178 10.0493 5.33201V9.37334C10.0493 9.7529 10.1133 10.1196 10.2413 10.4733C10.3693 10.8271 10.5196 11.1738 10.692 11.5133C10.8804 11.9071 11.048 12.3107 11.1947 12.724C11.3422 13.1364 11.416 13.564 11.416 14.0067C11.416 14.4938 11.3453 14.9685 11.204 15.4307C11.0627 15.8929 10.8538 16.3236 10.5773 16.7227C10.3871 17.0133 10.2404 17.3107 10.1373 17.6147C10.0342 17.9187 9.98267 18.2382 9.98267 18.5733C9.98267 18.8471 10.0178 19.1093 10.088 19.36C10.1582 19.6116 10.2489 19.8516 10.36 20.08L10.7613 20.912L9.568 21.496Z" fill="#1B2C92"/>
</svg>
