<svg width="29" height="28" viewBox="0 0 29 28" fill="none" xmlns="http://www.w3.org/2000/svg">
<path d="M8.97368 0C4.30681 0 0.5 3.80681 0.5 8.47368V19.5263C0.5 24.1926 4.30668 28 8.97368 28H20.0263C24.6927 28 28.5 24.1927 28.5 19.5263V8.47368C28.5 3.80668 24.6926 0 20.0263 0H8.97368ZM8.97368 2.21053H20.0263C23.4978 2.21053 26.2895 5.00153 26.2895 8.47368V19.5263C26.2895 22.9976 23.4976 25.7895 20.0263 25.7895H8.97368C5.50153 25.7895 2.71053 22.9978 2.71053 19.5263V8.47368C2.71053 5.0014 5.5014 2.21053 8.97368 2.21053ZM21.8684 5.15789C21.0542 5.15789 20.3947 5.81737 20.3947 6.63158C20.3947 7.44579 21.0542 8.10526 21.8684 8.10526C22.6826 8.10526 23.3421 7.44579 23.3421 6.63158C23.3421 5.81737 22.6826 5.15789 21.8684 5.15789ZM14.5 6.63158C10.4438 6.63158 7.13158 9.94382 7.13158 14C7.13158 18.0562 10.4438 21.3684 14.5 21.3684C18.5562 21.3684 21.8684 18.0562 21.8684 14C21.8684 9.94382 18.5562 6.63158 14.5 6.63158ZM14.5 8.8421C17.3613 8.8421 19.6579 11.1387 19.6579 14C19.6579 16.8613 17.3613 19.1579 14.5 19.1579C11.6387 19.1579 9.3421 16.8613 9.3421 14C9.3421 11.1387 11.6387 8.8421 14.5 8.8421Z" fill="#1C274C"/>
</svg>
