<svg width="22" height="24" viewBox="0 0 22 24" fill="none" xmlns="http://www.w3.org/2000/svg">
<path fill-rule="evenodd" clip-rule="evenodd" d="M10.2887 1.20733C10.302 1.582 10.372 1.80267 10.484 1.93533C10.6473 2.12867 10.8107 2.19733 11.004 2.21467C11.23 2.23467 11.5173 2.18333 11.898 2.06467C12.1156 1.99529 12.3314 1.9206 12.5453 1.84067C12.7293 1.774 12.9247 1.70267 13.1193 1.63867C13.5493 1.49667 14.0413 1.364 14.5393 1.364C17.7413 1.364 19.6407 3.864 20.8913 6.09533C22.4273 8.83533 22.3627 12.256 20.7267 14.938C19.6507 16.702 18.2753 18.23 16.19 19.0407C13.1653 20.2173 9.82733 19.762 7.07667 18.404C6.46467 18.1013 5.74533 18.5667 5.74533 19.1587V23.3367H4.412V19.1587C4.412 17.458 6.27867 16.5227 7.66733 17.208C10.162 18.44 13.1053 18.81 15.7067 17.798C17.418 17.1327 18.596 15.87 19.5887 14.2433C20.9733 11.9727 21.0287 9.06667 19.7287 6.74733C18.4933 4.544 16.9347 2.69733 14.54 2.69733C14.26 2.69733 13.9333 2.774 13.5373 2.90467C13.362 2.96267 13.1853 3.02667 12.9987 3.094L12.936 3.11733C12.73 3.19133 12.5127 3.26933 12.2953 3.33733C11.87 3.47 11.3793 3.586 10.8867 3.54267C10.3607 3.496 9.866 3.27133 9.464 2.794C9.06067 2.31533 8.97333 1.72333 8.95667 1.254C8.948 1.01333 8.958 0.774 8.968 0.564667L8.97267 0.471333C8.98133 0.293334 8.98867 0.144667 8.98867 0.00666682L10.322 0C10.322 0.178 10.3127 0.369333 10.304 0.544L10.3 0.629333C10.29 0.836 10.2827 1.02667 10.2887 1.20733ZM4.572 0.340667V0.00333341H5.90533V0.252C5.904 2.07067 5.90267 3.604 6.75 5.032C7.33933 6.02533 8.21133 6.72133 9.20333 7.51333L9.64533 7.86733C10.8467 8.83933 11.1053 10.1587 10.6947 11.314C10.3013 12.4247 9.308 13.344 8.08667 13.694C7.43 13.8813 6.80667 14.0207 6.24267 14.1467L5.856 14.2333C5.18133 14.3867 4.60867 14.5333 4.1 14.744C3.14 15.1407 2.356 15.7853 1.72733 17.326C1.46779 17.9632 1.334 18.6446 1.33333 19.3327V23.3367H0V19.3327C0 18.4727 0.167333 17.62 0.493333 16.8227C1.25 14.9673 2.28667 14.0513 3.59 13.512C4.212 13.2547 4.88133 13.088 5.55933 12.9333L5.96667 12.842C6.55529 12.7163 7.14 12.5729 7.72 12.412C8.55133 12.174 9.19667 11.5493 9.43867 10.868C9.664 10.232 9.55733 9.51133 8.80667 8.904C8.66978 8.79378 8.52978 8.682 8.38667 8.56867C7.40867 7.79133 6.32667 6.93267 5.60333 5.71267C4.56267 3.95867 4.56733 2.07733 4.572 0.340667Z" fill="#1B2C92"/>
</svg>
