<svg width="32" height="32" viewBox="0 0 32 32" fill="none" xmlns="http://www.w3.org/2000/svg">
<path d="M9.3334 18.6667C8.75138 18.6676 8.17656 18.7955 7.64906 19.0414C7.12155 19.2874 6.65408 19.6455 6.27926 20.0907C5.90443 20.536 5.6313 21.0577 5.4789 21.6194C5.32651 22.1811 5.29854 22.7693 5.39693 23.343C5.49533 23.9166 5.71772 24.4619 6.04859 24.9407C6.37947 25.4195 6.81085 25.8204 7.31262 26.1153C7.8144 26.4102 8.37449 26.592 8.9538 26.6481C9.53311 26.7042 10.1177 26.6332 10.6667 26.4401" stroke="#1B2C92" stroke-width="1.5" stroke-linecap="round" stroke-linejoin="round"/>
<path d="M5.68538 20.8067C4.88746 20.4226 4.19776 19.8458 3.67852 19.1284C3.15927 18.411 2.82683 17.5757 2.71119 16.6977C2.59556 15.8197 2.70037 14.9267 3.01616 14.0994C3.33196 13.272 3.8488 12.5363 4.52005 11.9587M4.56005 11.8507C4.12277 11.1964 3.93112 10.4084 4.01901 9.62633C4.1069 8.84426 4.46867 8.11851 5.04028 7.57755C5.61189 7.0366 6.35646 6.71534 7.14219 6.67065C7.92792 6.62596 8.70412 6.86071 9.33338 7.33336M9.65071 7.42003C9.43801 6.96809 9.3296 6.47412 9.33348 5.97464C9.33737 5.47517 9.45345 4.98295 9.67316 4.53437C9.89287 4.08579 10.2106 3.69233 10.6028 3.38305C10.995 3.07378 11.4518 2.85661 11.9392 2.7476C12.4267 2.63858 12.9324 2.64051 13.419 2.75323C13.9056 2.86596 14.3606 3.0866 14.7505 3.39885C15.1404 3.7111 15.4551 4.10697 15.6713 4.55721C15.8876 5.00745 16 5.50053 16 6.00003V26.6667C16 27.3739 15.7191 28.0522 15.219 28.5523C14.7189 29.0524 14.0406 29.3334 13.3334 29.3334C12.6261 29.3334 11.9479 29.0524 11.4478 28.5523C10.9477 28.0522 10.6667 27.3739 10.6667 26.6667M16 9.33336C16 10.3942 16.4215 11.4116 17.1716 12.1618C17.9218 12.9119 18.9392 13.3334 20 13.3334M22.6667 18.6667C23.2487 18.6676 23.8236 18.7954 24.3511 19.0414C24.8786 19.2873 25.346 19.6454 25.7209 20.0907C26.0957 20.5359 26.3688 21.0576 26.5212 21.6194C26.6736 22.1811 26.7016 22.7693 26.6032 23.3429C26.5048 23.9166 26.2824 24.4618 25.9515 24.9406C25.6206 25.4195 25.1893 25.8203 24.6875 26.1152C24.1857 26.4101 23.6256 26.592 23.0463 26.6481C22.467 26.7042 21.8824 26.6332 21.3334 26.44" stroke="#1B2C92" stroke-width="1.5" stroke-linecap="round" stroke-linejoin="round"/>
<path d="M26.3147 20.8067C27.1126 20.4226 27.8023 19.8458 28.3215 19.1284C28.8408 18.411 29.1732 17.5757 29.2889 16.6977C29.4045 15.8197 29.2997 14.9267 28.9839 14.0994C28.6681 13.272 28.1512 12.5363 27.48 11.9587M27.44 11.8507C27.8773 11.1964 28.0689 10.4084 27.981 9.62633C27.8931 8.84426 27.5314 8.11851 26.9598 7.57755C26.3882 7.0366 25.6436 6.71534 24.8579 6.67065C24.0721 6.62596 23.2959 6.86071 22.6667 7.33336M16 6.00003C16.0001 5.50053 16.1124 5.00745 16.3287 4.55721C16.545 4.10697 16.8597 3.7111 17.2496 3.39885C17.6394 3.0866 18.0945 2.86596 18.5811 2.75323C19.0677 2.64051 19.5734 2.63858 20.0608 2.7476C20.5483 2.85661 21.005 3.07378 21.3972 3.38305C21.7895 3.69233 22.1072 4.08579 22.3269 4.53437C22.5466 4.98295 22.6627 5.47517 22.6666 5.97464C22.6704 6.47412 22.562 6.96809 22.3493 7.42003M21.3333 26.6667C21.3333 27.3739 21.0524 28.0522 20.5523 28.5523C20.0522 29.0524 19.3739 29.3334 18.6667 29.3334C17.9594 29.3334 17.2811 29.0524 16.781 28.5523C16.281 28.0522 16 27.3739 16 26.6667" stroke="#1B2C92" stroke-width="1.5" stroke-linecap="round" stroke-linejoin="round"/>
</svg>
