<svg width="17" height="18" viewBox="0 0 17 18" fill="none" xmlns="http://www.w3.org/2000/svg">
<path d="M1.60655 6.68914C1.60657 2.99293 4.62015 0 8.33333 0C12.0465 0 15.0601 2.99295 15.0601 6.68919C15.0602 7.54898 15.118 8.19781 15.5145 8.78106C15.6653 8.99979 15.9511 9.36967 16.1414 9.66709C16.3546 10.0002 16.5628 10.402 16.6344 10.8702C16.868 12.3975 15.7912 13.3864 14.7188 13.8295C10.9415 15.3902 5.72513 15.3902 1.94788 13.8295C0.875464 13.3864 -0.201365 12.3975 0.0322299 10.8702C0.103829 10.402 0.312101 10.0002 0.525279 9.66709C0.715609 9.36963 1.0014 8.99972 1.15226 8.78099C1.54865 8.19777 1.60647 7.54887 1.60655 6.68914Z" fill="#1B2C92"/>
<path d="M10.6479 17.2508C9.97842 17.6719 9.18219 17.9147 8.33197 17.9147C7.48175 17.9147 6.68552 17.6719 6.01604 17.2508C5.42183 16.8771 5.12473 16.6903 5.2287 16.3797C5.33267 16.0691 5.74263 16.1039 6.56257 16.1734C7.73522 16.2729 8.92872 16.2729 10.1014 16.1734C10.9213 16.1039 11.3313 16.0691 11.4352 16.3797C11.5392 16.6903 11.2421 16.8771 10.6479 17.2508Z" fill="#1B2C92"/>
</svg>
