<svg width="22" height="22" viewBox="0 0 22 22" fill="none" xmlns="http://www.w3.org/2000/svg">
<path fill-rule="evenodd" clip-rule="evenodd" d="M9.50257 3.09855C9.73731 3.29957 10.0346 3.41281 10.3436 3.41889C10.6526 3.42497 10.9541 3.32352 11.1966 3.13188L11.1986 3.13055L11.2019 3.12788L11.2352 3.10255C11.2681 3.07766 11.3192 3.04055 11.3886 2.99122C11.5272 2.89322 11.7346 2.75388 11.9952 2.59722C12.5239 2.27988 13.2446 1.90922 14.0486 1.65988C15.6432 1.16588 17.3346 1.18988 18.7106 2.78588C19.5412 3.74855 19.8872 4.67922 19.9759 5.59255C20.0406 6.25722 19.9719 6.95122 19.8052 7.68722C19.1286 7.19496 18.3457 6.8688 17.5197 6.7351C16.6938 6.6014 15.8479 6.66392 15.0506 6.91759C14.2533 7.17127 13.5268 7.60899 12.9299 8.19537C12.333 8.78174 11.8825 9.50033 11.6147 10.293C11.3469 11.0858 11.2694 11.9304 11.3884 12.7586C11.5075 13.5868 11.8197 14.3754 12.2999 15.0606C12.78 15.7458 13.4147 16.3085 14.1525 16.703C14.8904 17.0976 15.7107 17.313 16.5472 17.3319C16.3299 17.9492 16.1339 18.3799 15.9286 18.7232C15.6859 19.1286 15.4059 19.4546 14.9746 19.8452C14.7566 19.6386 14.4812 19.3092 14.1179 18.8419L13.9399 18.6119C13.5652 18.1266 13.1212 17.5519 12.6686 17.0919C12.1906 16.6079 11.3866 15.9099 10.3352 15.9132C9.2899 15.9166 8.4839 16.6032 7.99524 17.0912C7.53657 17.5512 7.0859 18.1252 6.7059 18.6112C6.64457 18.6899 6.58457 18.7661 6.5259 18.8399C6.15524 19.3099 5.87524 19.6412 5.65324 19.8472C4.57924 18.7979 3.98657 17.3086 3.30657 14.5372C3.1519 13.9106 2.91724 13.1559 2.6739 12.3772L2.46524 11.7026C2.14457 10.6592 1.8259 9.56122 1.6079 8.47655C1.1499 6.19922 1.2359 4.45655 2.0859 3.42455C3.2159 2.05255 4.33924 1.42855 5.42057 1.34388C6.50657 1.25855 7.86057 1.69188 9.50257 3.09855ZM18.0079 17.1632C17.3266 19.3192 16.7639 20.0872 15.5246 21.1339C14.7259 21.8092 13.8246 20.6432 12.8759 19.4159C12.0539 18.3526 11.1966 17.2439 10.3399 17.2466C9.46857 17.2492 8.59724 18.3599 7.7639 19.4226C6.80324 20.6479 5.8919 21.8099 5.08857 21.1339C3.46657 19.7686 2.75524 17.8826 2.01124 14.8552C1.8679 14.2726 1.65057 13.5732 1.4099 12.8019C0.403236 9.56922 -0.998098 5.07189 1.05657 2.57722C3.6019 -0.512782 6.76457 -1.00278 10.3699 2.08588C10.3699 2.08588 16.0092 -2.38812 19.7206 1.91522C21.6539 4.15655 21.5732 6.47789 20.9026 8.75855C21.4372 9.45753 21.7905 10.2779 21.9313 11.1465C22.072 12.0152 21.9957 12.9051 21.7091 13.7372C21.4226 14.5692 20.9347 15.3174 20.2889 15.9151C19.6431 16.5129 18.8595 16.9417 18.0079 17.1632ZM20.6666 11.9999C20.6666 13.0608 20.2451 14.0782 19.495 14.8283C18.7449 15.5785 17.7274 15.9999 16.6666 15.9999C15.6057 15.9999 14.5883 15.5785 13.8381 14.8283C13.088 14.0782 12.6666 13.0608 12.6666 11.9999C12.6666 10.939 13.088 9.9216 13.8381 9.17146C14.5883 8.42131 15.6057 7.99989 16.6666 7.99989C17.7274 7.99989 18.7449 8.42131 19.495 9.17146C20.2451 9.9216 20.6666 10.939 20.6666 11.9999ZM16.6666 9.33322C16.4898 9.33322 16.3202 9.40346 16.1952 9.52848C16.0701 9.6535 15.9999 9.82307 15.9999 9.99989V11.3332H14.6666C14.4898 11.3332 14.3202 11.4035 14.1952 11.5285C14.0701 11.6535 13.9999 11.8231 13.9999 11.9999C13.9999 12.1767 14.0701 12.3463 14.1952 12.4713C14.3202 12.5963 14.4898 12.6666 14.6666 12.6666H15.9999V13.9999C15.9999 14.1767 16.0701 14.3463 16.1952 14.4713C16.3202 14.5963 16.4898 14.6666 16.6666 14.6666C16.8434 14.6666 17.013 14.5963 17.138 14.4713C17.263 14.3463 17.3332 14.1767 17.3332 13.9999V12.6666H18.6666C18.8434 12.6666 19.013 12.5963 19.138 12.4713C19.263 12.3463 19.3332 12.1767 19.3332 11.9999C19.3332 11.8231 19.263 11.6535 19.138 11.5285C19.013 11.4035 18.8434 11.3332 18.6666 11.3332H17.3332V9.99989C17.3332 9.82307 17.263 9.6535 17.138 9.52848C17.013 9.40346 16.8434 9.33322 16.6666 9.33322Z" fill="#1B2C92"/>
</svg>
