<svg width="26" height="26" viewBox="0 0 26 26" fill="none" xmlns="http://www.w3.org/2000/svg">
<path d="M22.0832 12.7501C22.0832 12.7501 17.9104 18.0832 12.7501 18.0832C7.59043 18.0832 3.41699 12.7501 3.41699 12.7501C3.41699 12.7501 7.58979 7.41699 12.7501 7.41699C17.9104 7.41699 22.0832 12.7501 22.0832 12.7501ZM12.7501 10.0832C12.0428 10.0832 11.3645 10.3642 10.8643 10.8643C10.3642 11.3645 10.0832 12.0428 10.0832 12.7501C10.0832 13.4574 10.3642 14.1357 10.8643 14.6359C11.3645 15.136 12.0428 15.417 12.7501 15.417C13.4574 15.417 14.1357 15.136 14.6359 14.6359C15.136 14.1357 15.417 13.4574 15.417 12.7501C15.417 12.0428 15.136 11.3645 14.6359 10.8643C14.1357 10.3642 13.4574 10.0832 12.7501 10.0832Z" stroke="#1B2C92" stroke-width="1.5" stroke-linecap="round" stroke-linejoin="round"/>
<path d="M0.75 6.08312V2.08312C0.75 1.72955 0.890453 1.39047 1.14046 1.14046C1.39047 0.890453 1.72955 0.75 2.08312 0.75H6.08312M24.75 6.08312V2.08312C24.75 1.72955 24.6095 1.39047 24.3595 1.14046C24.1095 0.890453 23.7704 0.75 23.4169 0.75H19.4169M0.75 19.4169V23.4169C0.75 23.7704 0.890453 24.1095 1.14046 24.3595C1.39047 24.6095 1.72955 24.75 2.08312 24.75H6.08312M24.75 19.4169V23.4169C24.75 23.7704 24.6095 24.1095 24.3595 24.3595C24.1095 24.6095 23.7704 24.75 23.4169 24.75H19.4169" stroke="#1B2C92" stroke-width="1.5" stroke-linecap="round" stroke-linejoin="round"/>
</svg>
