<svg width="48" height="48" viewBox="0 0 48 48" fill="none" xmlns="http://www.w3.org/2000/svg">
<path d="M11.232 42C10.3107 42 9.542 41.692 8.926 41.076C8.31 40.46 8.00133 39.6914 8 38.77V13.23C8 12.31 8.30867 11.542 8.926 10.926C9.54333 10.31 10.312 10.0014 11.232 10H14.77V5.54004H16.924V10H31.232V5.54004H33.232V10H36.77C37.69 10 38.4587 10.3087 39.076 10.926C39.6933 11.5434 40.0013 12.312 40 13.232V38.77C40 39.69 39.692 40.4587 39.076 41.076C38.46 41.6934 37.6907 42.0014 36.768 42H11.232ZM10 38.77C10 39.0767 10.128 39.3587 10.384 39.616C10.64 39.8734 10.922 40.0014 11.23 40H36.77C37.0767 40 37.3587 39.872 37.616 39.616C37.8733 39.36 38.0013 39.078 38 38.77V13.23C38 12.9234 37.872 12.6414 37.616 12.384C37.36 12.1267 37.0773 11.9987 36.768 12H11.232C10.924 12 10.6413 12.128 10.384 12.384C10.1267 12.64 9.99867 12.9227 10 13.232V38.77ZM19.232 40V35.592L15.324 30.97C15.0333 30.654 14.7787 30.2567 14.56 29.778C14.3413 29.298 14.232 28.744 14.232 28.116C14.232 27.7334 14.2733 27.366 14.356 27.014C14.4387 26.662 14.5673 26.324 14.742 26C14.5753 25.684 14.4487 25.35 14.362 24.998C14.2753 24.646 14.232 24.2747 14.232 23.884C14.232 23.2574 14.3413 22.704 14.56 22.224C14.7787 21.744 15.0333 21.3467 15.324 21.032L19.232 16.408V12H21V16.534C21 16.7007 20.8833 17.0174 20.65 17.484L16.65 22.184C16.4167 22.4507 16.25 22.726 16.15 23.01C16.05 23.294 16 23.5854 16 23.884C16 24.5507 16.2167 25.126 16.65 25.61C17.0833 26.094 17.6333 26.3354 18.3 26.334C18.6 26.334 18.8767 26.284 19.13 26.184C19.3833 26.084 19.6233 25.9174 19.85 25.684C20.4167 25.1174 21.058 24.684 21.774 24.384C22.49 24.084 23.232 23.934 24 23.934C24.768 23.934 25.51 24.084 26.226 24.384C26.942 24.684 27.5833 25.1174 28.15 25.684C28.3833 25.9174 28.6333 26.084 28.9 26.184C29.1667 26.284 29.4333 26.334 29.7 26.334C30.3667 26.334 30.9167 26.0927 31.35 25.61C31.7833 25.1274 32 24.5687 32 23.934C32 23.634 31.9413 23.3427 31.824 23.06C31.7067 22.7774 31.5487 22.502 31.35 22.234L27.35 17.484C27.2167 17.3507 27.1247 17.2007 27.074 17.034C27.0233 16.8674 26.9987 16.7007 27 16.534V12H28.77V16.446L32.69 21.092C33.0527 21.4974 33.3233 21.944 33.502 22.432C33.6793 22.9214 33.768 23.422 33.768 23.934C33.768 24.3167 33.7227 24.684 33.632 25.036C33.5413 25.388 33.4127 25.7094 33.246 26C33.4193 26.3227 33.55 26.6607 33.638 27.014C33.726 27.366 33.77 27.7327 33.77 28.114C33.77 28.7434 33.66 29.298 33.44 29.778C33.2213 30.2567 32.9673 30.654 32.678 30.97L28.77 35.592V40H27V35.466C27 35.266 27.1167 34.9494 27.35 34.516L31.35 29.816C31.6353 29.472 31.828 29.092 31.928 28.676C32.028 28.26 32.0133 27.8514 31.884 27.45C31.5693 27.6674 31.2347 27.8307 30.88 27.94C30.5267 28.0494 30.15 28.104 29.75 28.104C29.2367 28.104 28.73 28.0027 28.23 27.8C27.73 27.5974 27.2813 27.2934 26.884 26.888C26.524 26.4934 26.0913 26.1974 25.586 26C25.0833 25.8027 24.5547 25.704 24 25.704C23.48 25.704 22.9613 25.8027 22.444 26C21.9267 26.1974 21.484 26.4934 21.116 26.888C20.7427 27.2934 20.302 27.5974 19.794 27.8C19.2847 28.0027 18.774 28.104 18.262 28.104C17.862 28.104 17.4827 28.0494 17.124 27.94C16.7653 27.8307 16.4293 27.6674 16.116 27.45C15.988 27.8527 15.974 28.262 16.074 28.678C16.174 29.094 16.366 29.4734 16.65 29.816L20.65 34.516C20.75 34.6827 20.8333 34.8407 20.9 34.99C20.9667 35.1394 21 35.298 21 35.466V40H19.232ZM10 38.77V40V12V38.77Z" fill="#1B2C92"/>
</svg>
