<svg width="48" height="48" viewBox="0 0 48 48" fill="none" xmlns="http://www.w3.org/2000/svg">
<path d="M39.8803 18.7534C38.7723 16.1512 37.0425 13.8608 34.8427 12.0833C32.6429 10.3057 30.0404 9.09537 27.2636 8.55842L29.772 4.54508L27.228 2.95508L23.9182 8.25083C20.5467 8.26652 17.2537 9.26957 14.446 11.1361C11.6384 13.0026 9.439 15.6507 8.11969 18.7534C6.35256 18.787 4.66914 19.5125 3.4313 20.7741C2.19345 22.0357 1.5 23.7326 1.5 25.5001C1.5 27.2675 2.19345 28.9644 3.4313 30.226C4.66914 31.4876 6.35256 32.2132 8.11969 32.2468C9.44457 35.3622 11.6566 38.0191 14.4802 39.8867C17.3039 41.7543 20.6146 42.7501 24 42.7501C27.3854 42.7501 30.6961 41.7543 33.5198 39.8867C36.3435 38.0191 38.5554 35.3622 39.8803 32.2468C41.6474 32.2132 43.3309 31.4876 44.5687 30.226C45.8066 28.9644 46.5 27.2675 46.5 25.5001C46.5 23.7326 45.8066 22.0357 44.5687 20.7741C43.3309 19.5125 41.6474 18.787 39.8803 18.7534ZM42.4258 28.126C41.7397 28.8278 40.8046 29.2307 39.8233 29.2474L37.8803 29.2843L37.1198 31.0725C36.0254 33.6465 34.198 35.8418 31.8652 37.3849C29.5323 38.928 26.7971 39.7508 24 39.7508C21.203 39.7508 18.4678 38.928 16.1349 37.3849C13.8021 35.8418 11.9747 33.6465 10.8803 31.0725L10.1197 29.2843L8.17669 29.2474C7.195 29.229 6.25971 28.8261 5.57195 28.1254C4.88419 27.4246 4.49889 26.4819 4.49889 25.5001C4.49889 24.5182 4.88419 23.5756 5.57195 22.8748C6.25971 22.174 7.195 21.7712 8.17669 21.7528L10.1197 21.7159L10.8803 19.9277C11.9747 17.3537 13.8021 15.1584 16.135 13.6153C18.4678 12.0722 21.203 11.2495 24 11.2495C26.7971 11.2495 29.5323 12.0722 31.8651 13.6153C34.198 15.1584 36.0254 17.3537 37.1198 19.9277L37.8803 21.7159L39.8233 21.7528C40.5555 21.7666 41.2676 21.9947 41.8716 22.4088C42.4756 22.8229 42.9451 23.405 43.2219 24.0829C43.4988 24.7609 43.5709 25.5052 43.4295 26.2237C43.288 26.9423 42.939 27.6036 42.4258 28.126Z" fill="#1B2C92"/>
<path d="M15.75 21.75H19.5V25.5H15.75V21.75ZM28.5 21.75H32.25V25.5H28.5V21.75ZM24 36C24.9849 36 25.9602 35.806 26.8701 35.4291C27.7801 35.0522 28.6069 34.4997 29.3033 33.8033C29.9997 33.1069 30.5522 32.2801 30.9291 31.3701C31.306 30.4602 31.5 29.4849 31.5 28.5H16.5C16.5 29.4849 16.694 30.4602 17.0709 31.3701C17.4478 32.2801 18.0003 33.1069 18.6967 33.8033C20.1032 35.2098 22.0109 36 24 36Z" fill="#1B2C92"/>
</svg>
