<svg width="75" height="75" viewBox="0 0 75 75" fill="none" xmlns="http://www.w3.org/2000/svg">
<path d="M65.3438 34.7499C65.3438 50.0312 54.25 64.3437 39.0938 68.5312C38.0625 68.8124 36.9375 68.8124 35.9062 68.5312C20.75 64.3437 9.65625 50.0312 9.65625 34.7499V21.0311C9.65625 18.4686 11.5938 15.5624 14 14.5937L31.4062 7.46875C35.3125 5.875 39.7187 5.875 43.625 7.46875L61.0313 14.5937C63.4063 15.5624 65.3751 18.4686 65.3751 21.0311L65.3438 34.7499Z" stroke="#1B2C92" stroke-width="3" stroke-linecap="round" stroke-linejoin="round"/>
<path d="M37.5 39.0625C40.9518 39.0625 43.75 36.2643 43.75 32.8125C43.75 29.3607 40.9518 26.5625 37.5 26.5625C34.0482 26.5625 31.25 29.3607 31.25 32.8125C31.25 36.2643 34.0482 39.0625 37.5 39.0625Z" stroke="#1B2C92" stroke-width="3" stroke-miterlimit="10" stroke-linecap="round" stroke-linejoin="round"/>
<path d="M37.5 39.0625V48.4375" stroke="#1B2C92" stroke-width="3" stroke-miterlimit="10" stroke-linecap="round" stroke-linejoin="round"/>
</svg>
