<svg width="23" height="23" viewBox="0 0 23 23" fill="none" xmlns="http://www.w3.org/2000/svg">
<path d="M3.83325 17.2315V9.30289C3.83325 5.82091 3.83325 4.07992 4.95601 2.99821C6.07877 1.9165 7.88582 1.9165 11.4999 1.9165C15.114 1.9165 16.9211 1.9165 18.0438 2.99821C19.1666 4.07992 19.1666 5.82091 19.1666 9.30289V17.2315C19.1666 19.4412 19.1666 20.5461 18.4259 20.9416C16.9917 21.7075 14.3013 19.1523 13.0237 18.383C12.2827 17.9368 11.9122 17.7137 11.4999 17.7137C11.0876 17.7137 10.7172 17.9368 9.97617 18.383C8.69852 19.1523 6.00816 21.7075 4.5739 20.9416C3.83325 20.5461 3.83325 19.4412 3.83325 17.2315Z" stroke="white" stroke-width="1.5" stroke-linecap="round" stroke-linejoin="round"/>
</svg>
