<svg width="146" height="40" viewBox="0 0 146 40" fill="none" xmlns="http://www.w3.org/2000/svg">
<path d="M28.1544 27.32L28.8744 26.8C29.781 26.2667 30.421 26 30.7944 26C31.621 26 32.5144 26.7467 33.4744 28.24C34.061 29.1733 34.3544 29.92 34.3544 30.48C34.3544 31.04 34.1677 31.5067 33.7944 31.88C33.4477 32.2533 33.0344 32.5867 32.5544 32.88C32.0744 33.1733 31.6077 33.4533 31.1544 33.72C30.7277 33.9867 29.8344 34.3333 28.4744 34.76C27.1144 35.1867 25.7944 35.4 24.5144 35.4C23.261 35.4 21.981 35.24 20.6744 34.92C19.3944 34.5733 18.061 34.0133 16.6744 33.24C15.3144 32.44 14.0877 31.48 12.9944 30.36C11.901 29.2133 10.9944 27.76 10.2744 26C9.58104 24.2133 9.23438 22.28 9.23438 20.2C9.23438 18.12 9.58104 16.24 10.2744 14.56C10.9677 12.8533 11.8477 11.4533 12.9144 10.36C14.0077 9.24 15.2477 8.30666 16.6344 7.56C19.2477 6.12 21.8744 5.4 24.5144 5.4C25.7677 5.4 27.0344 5.6 28.3144 6C29.621 6.37333 30.6077 6.76 31.2744 7.16L32.2344 7.72C32.7144 8.01333 33.0877 8.25333 33.3544 8.44C34.0477 9 34.3944 9.64 34.3944 10.36C34.3944 11.0533 34.1144 11.7867 33.5544 12.56C32.5144 14 31.581 14.72 30.7544 14.72C30.2744 14.72 29.5944 14.4267 28.7144 13.84C27.5944 12.9333 26.101 12.48 24.2344 12.48C22.501 12.48 20.7944 13.08 19.1144 14.28C18.3144 14.8667 17.6477 15.6933 17.1144 16.76C16.581 17.8267 16.3144 19.04 16.3144 20.4C16.3144 21.7333 16.581 22.9333 17.1144 24C17.6477 25.0667 18.3277 25.9067 19.1544 26.52C20.781 27.6933 22.4744 28.28 24.2344 28.28C25.061 28.28 25.8344 28.1733 26.5544 27.96C27.301 27.7467 27.8344 27.5333 28.1544 27.32ZM36.9828 7.52C36.9828 6.90667 36.9961 6.45333 37.0228 6.16C37.0761 5.84 37.1961 5.48 37.3828 5.08C37.7561 4.36 38.7961 4 40.5028 4C42.1295 4 43.1428 4.36 43.5428 5.08C43.7561 5.48 43.8761 5.84 43.9028 6.16C43.9561 6.48 43.9828 6.94666 43.9828 7.56V26.08C43.9828 27.04 44.0628 27.6533 44.2228 27.92C44.3828 28.16 44.7295 28.28 45.2628 28.28C45.8228 28.28 46.1961 28.3067 46.3828 28.36C46.5695 28.3867 46.7961 28.4933 47.0628 28.68C47.5961 29.0267 47.8628 29.9733 47.8628 31.52C47.8628 33.2 47.5961 34.2267 47.0628 34.6C46.3695 35.08 44.7161 35.16 42.1028 34.84C40.0495 34.5733 38.7161 33.8933 38.1028 32.8C37.3561 31.4933 36.9828 29.4133 36.9828 26.56V7.52ZM50.0688 17.44C50.0688 16.8267 50.0821 16.3733 50.1088 16.08C50.1621 15.76 50.2821 15.4 50.4688 15C50.8421 14.3067 51.8821 13.96 53.5888 13.96C54.8688 13.96 55.7754 14.1867 56.3088 14.64C56.7621 15.0133 57.0021 15.5867 57.0288 16.36C57.0554 16.6267 57.0688 17.0133 57.0688 17.52V31.52C57.0688 32.1333 57.0421 32.6 56.9888 32.92C56.9621 33.2133 56.8421 33.56 56.6288 33.96C56.2821 34.6533 55.2554 35 53.5488 35C51.8688 35 50.8421 34.64 50.4688 33.92C50.2821 33.52 50.1621 33.1733 50.1088 32.88C50.0821 32.5867 50.0688 32.12 50.0688 31.48V17.44ZM56.6288 10.04C56.4421 10.4133 56.0954 10.68 55.5888 10.84C55.0821 11 54.4021 11.08 53.5488 11.08C52.7221 11.08 52.0554 11 51.5488 10.84C51.0421 10.68 50.6821 10.4 50.4688 10C50.2821 9.6 50.1621 9.25333 50.1088 8.96C50.0821 8.64 50.0688 8.17333 50.0688 7.56C50.0688 6.94666 50.0821 6.49333 50.1088 6.2C50.1621 5.88 50.2821 5.53333 50.4688 5.16C50.8421 4.44 51.8821 4.08 53.5888 4.08C55.2688 4.08 56.2821 4.44 56.6288 5.16C56.8421 5.56 56.9621 5.92 56.9888 6.24C57.0421 6.53333 57.0688 6.98667 57.0688 7.6C57.0688 8.21333 57.0421 8.68 56.9888 9C56.9621 9.29333 56.8421 9.64 56.6288 10.04ZM71.9841 13.92C74.6507 13.92 76.8641 14.9467 78.6241 17C80.4107 19.0267 81.3041 21.5067 81.3041 24.44V31.48C81.3041 32.0933 81.2774 32.56 81.2241 32.88C81.1974 33.1733 81.0907 33.5067 80.9041 33.88C80.5307 34.6 79.4907 34.96 77.7841 34.96C75.8907 34.96 74.7974 34.4667 74.5041 33.48C74.3441 33.0267 74.2641 32.3467 74.2641 31.44V24.4C74.2641 23.3067 73.9441 22.4533 73.3041 21.84C72.6907 21.2267 71.8507 20.92 70.7841 20.92C69.7441 20.92 68.8907 21.24 68.2241 21.88C67.5841 22.52 67.2641 23.36 67.2641 24.4V31.48C67.2641 32.0933 67.2374 32.56 67.1841 32.88C67.1574 33.1733 67.0374 33.5067 66.8241 33.88C66.4774 34.6 65.4507 34.96 63.7441 34.96C62.0641 34.96 61.0374 34.6 60.6641 33.88C60.4774 33.48 60.3574 33.1333 60.3041 32.84C60.2774 32.52 60.2641 32.0533 60.2641 31.44V17.28C60.2641 16.6933 60.2774 16.2533 60.3041 15.96C60.3574 15.64 60.4907 15.2933 60.7041 14.92C61.0774 14.2533 62.1041 13.92 63.7841 13.92C65.4107 13.92 66.4107 14.2267 66.7841 14.84C67.0507 15.2933 67.1841 15.84 67.1841 16.48C67.2907 16.2933 67.5307 16.0267 67.9041 15.68C68.2774 15.3333 68.6374 15.0533 68.9841 14.84C69.8907 14.2267 70.8907 13.92 71.9841 13.92ZM84.5219 17.44C84.5219 16.8267 84.5352 16.3733 84.5619 16.08C84.6152 15.76 84.7352 15.4 84.9219 15C85.2952 14.3067 86.3352 13.96 88.0419 13.96C89.3219 13.96 90.2285 14.1867 90.7619 14.64C91.2152 15.0133 91.4552 15.5867 91.4819 16.36C91.5085 16.6267 91.5219 17.0133 91.5219 17.52V31.52C91.5219 32.1333 91.4952 32.6 91.4419 32.92C91.4152 33.2133 91.2952 33.56 91.0819 33.96C90.7352 34.6533 89.7085 35 88.0019 35C86.3219 35 85.2952 34.64 84.9219 33.92C84.7352 33.52 84.6152 33.1733 84.5619 32.88C84.5352 32.5867 84.5219 32.12 84.5219 31.48V17.44ZM91.0819 10.04C90.8952 10.4133 90.5485 10.68 90.0419 10.84C89.5352 11 88.8552 11.08 88.0019 11.08C87.1752 11.08 86.5085 11 86.0019 10.84C85.4952 10.68 85.1352 10.4 84.9219 10C84.7352 9.6 84.6152 9.25333 84.5619 8.96C84.5352 8.64 84.5219 8.17333 84.5219 7.56C84.5219 6.94666 84.5352 6.49333 84.5619 6.2C84.6152 5.88 84.7352 5.53333 84.9219 5.16C85.2952 4.44 86.3352 4.08 88.0419 4.08C89.7219 4.08 90.7352 4.44 91.0819 5.16C91.2952 5.56 91.4152 5.92 91.4419 6.24C91.4952 6.53333 91.5219 6.98667 91.5219 7.6C91.5219 8.21333 91.4952 8.68 91.4419 9C91.4152 9.29333 91.2952 9.64 91.0819 10.04ZM101.317 24.48C101.317 25.6 101.691 26.48 102.437 27.12C103.184 27.7333 103.971 28.04 104.797 28.04C105.651 28.04 106.437 27.8 107.157 27.32C107.904 26.8133 108.504 26.56 108.957 26.56C109.757 26.56 110.731 27.2667 111.877 28.68C112.491 29.4533 112.797 30.1467 112.797 30.76C112.797 31.7733 112.064 32.72 110.597 33.6C109.077 34.6667 107.211 35.2 104.997 35.2C102.517 35.2 100.131 34.3067 97.8372 32.52C96.7439 31.6667 95.8505 30.5333 95.1572 29.12C94.4639 27.68 94.1172 26.1067 94.1172 24.4C94.1172 22.6667 94.4639 21.1067 95.1572 19.72C95.8505 18.3067 96.7439 17.1733 97.8372 16.32C100.051 14.56 102.411 13.68 104.917 13.68C105.931 13.68 106.917 13.8267 107.877 14.12C108.837 14.3867 109.544 14.6533 109.997 14.92L110.637 15.32C111.117 15.64 111.491 15.8933 111.757 16.08C112.451 16.6133 112.797 17.2267 112.797 17.92C112.797 18.5867 112.517 19.3467 111.957 20.2C110.997 21.6667 110.077 22.4 109.197 22.4C108.691 22.4 107.971 22.1067 107.037 21.52C106.557 21.0667 105.864 20.84 104.957 20.84C104.077 20.84 103.251 21.16 102.477 21.8C101.704 22.44 101.317 23.3333 101.317 24.48ZM114.781 24.48C114.781 21.28 115.901 18.64 118.141 16.56C120.381 14.48 122.941 13.44 125.821 13.44C128.701 13.44 131.248 14.48 133.461 16.56C135.675 18.6133 136.781 21.24 136.781 24.44C136.781 26.6533 136.208 28.6267 135.061 30.36C133.915 32.0667 132.515 33.3333 130.861 34.16C129.235 34.96 127.541 35.36 125.781 35.36C124.021 35.36 122.315 34.9333 120.661 34.08C119.008 33.2 117.608 31.92 116.461 30.24C115.341 28.5333 114.781 26.6133 114.781 24.48ZM123.141 27.36C123.995 28 124.861 28.32 125.741 28.32C126.621 28.32 127.501 27.9867 128.381 27.32C129.261 26.6533 129.701 25.6667 129.701 24.36C129.701 23.0533 129.288 22.08 128.461 21.44C127.635 20.8 126.741 20.48 125.781 20.48C124.821 20.48 123.928 20.8133 123.101 21.48C122.275 22.1467 121.861 23.1333 121.861 24.44C121.861 25.72 122.288 26.6933 123.141 27.36Z" fill="white"/>
</svg>
