<svg width="29" height="28" viewBox="0 0 29 28" fill="none" xmlns="http://www.w3.org/2000/svg">
<path d="M25.1667 0H3.83333C1.99533 0 0.5 1.49533 0.5 3.33333V24.6667C0.5 26.5047 1.99533 28 3.83333 28H25.1667C27.0047 28 28.5 26.5047 28.5 24.6667V3.33333C28.5 1.49533 27.0047 0 25.1667 0ZM22.504 12.2153C22.3527 12.2293 22.1993 12.2387 22.044 12.2387C20.2953 12.2387 18.7587 11.3393 17.8647 9.98C17.8647 13.546 17.8647 17.6033 17.8647 17.6713C17.8647 20.8107 15.3193 23.356 12.18 23.356C9.04067 23.356 6.49533 20.8107 6.49533 17.6713C6.49533 14.532 9.04067 11.9867 12.18 11.9867C12.2987 11.9867 12.4147 11.9973 12.5313 12.0047V14.806C12.4147 14.792 12.3 14.7707 12.18 14.7707C10.5773 14.7707 9.27867 16.0693 9.27867 17.672C9.27867 19.2747 10.5773 20.5733 12.18 20.5733C13.7827 20.5733 15.198 19.3107 15.198 17.708C15.198 17.6447 15.226 4.64533 15.226 4.64533H17.9033C18.1553 7.03933 20.088 8.92867 22.504 9.102V12.2153Z" fill="#1C274C"/>
</svg>
